<?xml version="1.0" encoding="utf-8"?>
<!-- Generator: Adobe Illustrator 15.0.0, SVG Export Plug-In . SVG Version: 6.00 Build 0)  -->
<!DOCTYPE svg PUBLIC "-//W3C//DTD SVG 1.1//EN" "http://www.w3.org/Graphics/SVG/1.1/DTD/svg11.dtd">
<svg version="1.1" id="Layer_1" xmlns="http://www.w3.org/2000/svg" xmlns:xlink="http://www.w3.org/1999/xlink" x="0px" y="0px"
	 width="260px" height="80px" viewBox="0 0 260 80" enable-background="new 0 0 260 80" xml:space="preserve">
<symbol  id="logo" viewBox="-86.266 -19.156 172.531 38.313">
	<text transform="matrix(0.9951 0 0 -1 -86.2656 -12.1641)" fill="#74507B" font-family="'Ubuntu'" font-size="37">yango</text>
	<text transform="matrix(0.9951 0 0 -1 15.3901 -12.1641)" fill="#20A7D6" font-family="'Ubuntu'" font-size="37">web</text>
</symbol>
<circle fill="#F0F0F0" cx="39.845" cy="39.867" r="40"/>
<path fill="#20A7D6" d="M19.349,18.333h-8.665c0,0,13.771,40.259,15.753,43.169l4.201-8.228
	C30.639,53.273,21.282,28.023,19.349,18.333z"/>
<path fill="#20A7D6" d="M60.602,18.333h7.232c0,0-8.379,30.527-17.869,48.377h-5.474c0,0-4.187-8.581-5.233-11.035l3.156-7.939
	c0,0,4.374,8.546,5.338,8.869C48.718,56.929,59.842,22.165,60.602,18.333z"/>
<use xlink:href="#logo"  width="172.531" height="38.313" x="-86.266" y="-19.156" transform="matrix(1 0 0 -1 169.9336 38.0176)" overflow="visible"/>
<path fill="#74507B" d="M39.58,39.169c0,0,3.937-10.176,6.681-20.835h6.821c0,0-4.73,18.251-18.252,48.377h-7.727
	c0,0,8.033-17.855,7.61-19.583c-1.15-4.7-1.228-0.367-9.278-28.795h8.267C33.703,18.333,35.336,24.388,39.58,39.169"/>
</svg>
